<?xml version="1.0" encoding="UTF-8" standalone="no"?>
<!-- Created with Inkscape (http://www.inkscape.org/) -->

<svg
   xmlns:dc="http://purl.org/dc/elements/1.1/"
   xmlns:cc="http://creativecommons.org/ns#"
   xmlns:rdf="http://www.w3.org/1999/02/22-rdf-syntax-ns#"
   xmlns:svg="http://www.w3.org/2000/svg"
   xmlns="http://www.w3.org/2000/svg"
   xmlns:sodipodi="http://sodipodi.sourceforge.net/DTD/sodipodi-0.dtd"
   xmlns:inkscape="http://www.inkscape.org/namespaces/inkscape"
   width="210mm"
   height="297mm"
   viewBox="0 0 210 297"
   version="1.1"
   id="svg1024"
   inkscape:version="0.92.4 (5da689c313, 2019-01-14)"
   sodipodi:docname="free.svg">
  <defs
     id="defs1018" />
  <sodipodi:namedview
     id="base"
     pagecolor="#ffffff"
     bordercolor="#666666"
     borderopacity="1.0"
     inkscape:pageopacity="0.0"
     inkscape:pageshadow="2"
     inkscape:zoom="0.35"
     inkscape:cx="-214.28571"
     inkscape:cy="560"
     inkscape:document-units="mm"
     inkscape:current-layer="layer1"
     showgrid="false"
     inkscape:window-width="1920"
     inkscape:window-height="1001"
     inkscape:window-x="-9"
     inkscape:window-y="-9"
     inkscape:window-maximized="1" />
  <metadata
     id="metadata1021">
    <rdf:RDF>
      <cc:Work
         rdf:about="">
        <dc:format>image/svg+xml</dc:format>
        <dc:type
           rdf:resource="http://purl.org/dc/dcmitype/StillImage" />
        <dc:title></dc:title>
      </cc:Work>
    </rdf:RDF>
  </metadata>
  <g
     inkscape:label="Layer 1"
     inkscape:groupmode="layer"
     id="layer1">
    <g
       transform="matrix(0.35208943,0,0,0.35208943,28.223513,75.966444)"
       id="g1576">
      <g
         transform="translate(-7.6475006)"
         id="g969">
        <rect
           style="opacity:1;fill:#19b2c3;fill-opacity:1;fill-rule:nonzero;stroke:none;stroke-width:2.63537502;stroke-linecap:round;stroke-linejoin:round;stroke-miterlimit:4;stroke-dasharray:none;stroke-opacity:1;paint-order:markers stroke fill"
           id="rect869"
           width="508.91095"
           height="218.01646"
           x="-11.352207"
           y="164.81445"
           ry="27.174858" />
        <g
           id="g867"
           transform="translate(-3.5814507,3.4929953)">
          <path
             id="path843"
             d="M 468.548,146.62891 H 366.52847 L 277.94644,56.648438 c 3.5,-5.628907 5.52734,-12.261719 5.52734,-19.359376 C 283.47378,17.003906 266.96988,0.5 246.68472,0.5 c -20.28516,0 -36.78906,16.503906 -36.78906,36.789062 0,7.449219 2.23047,14.386719 6.05468,20.1875 L 126.798,146.62891 H 87.481592 c -4.148437,0 -7.511719,3.35937 -7.511719,7.50781 0,4.14844 3.363282,7.51172 7.511719,7.51172 H 468.548 c 10.53906,0 19.11719,8.57422 19.11719,19.11328 v 178.64844 c 0,10.53906 -8.57813,19.11328 -19.11719,19.11328 h -23.60937 c -4.14844,0 -7.51172,3.36328 -7.51172,7.51172 0,4.14843 3.36328,7.50781 7.51172,7.50781 H 468.548 c 18.82031,0 34.13672,-15.3125 34.13672,-34.13281 V 180.76172 c 0,-18.82031 -15.3125,-34.13281 -34.13672,-34.13281 z M 246.68472,15.519531 c 12.00391,0 21.76953,9.765625 21.76953,21.769531 0,12.003907 -9.76562,21.769532 -21.76953,21.769532 -12.00391,0 -21.76953,-9.765625 -21.76953,-21.769532 0,-12.003906 9.76562,-21.769531 21.76953,-21.769531 z m -20.09766,52.558594 c 5.78125,3.789063 12.6836,6 20.09766,6 7.76172,0 14.96484,-2.421875 20.90625,-6.542969 l 77.85937,79.093754 H 148.04019 Z m 0,0"
             inkscape:connector-curvature="0" />
          <path
             id="path845"
             d="M 414.89956,378.52344 H 24.821436 c -10.542969,0 -19.1171882,-8.57422 -19.1171882,-19.11328 V 180.76172 c 0,-10.53906 8.5742192,-19.11328 19.1171882,-19.11328 h 29.207031 c 4.148438,0 7.511719,-3.36328 7.511719,-7.51172 0,-4.14844 -3.363281,-7.50781 -7.511719,-7.50781 H 24.821436 c -18.8242192,0 -34.1367192,15.3125 -34.1367192,34.13281 v 178.64844 c 0,18.82031 15.3125,34.13281 34.1367192,34.13281 H 414.89956 c 4.14844,0 7.50782,-3.35938 7.50782,-7.50781 0,-4.14844 -3.35938,-7.51172 -7.50782,-7.51172 z m 0,0"
             inkscape:connector-curvature="0" />
        </g>
      </g>
      <text
         id="text857"
         y="316.82584"
         x="43.55566"
         style="font-style:normal;font-variant:normal;font-weight:normal;font-stretch:normal;font-size:142.39544678px;line-height:1.25;font-family:'Arial Rounded MT Bold';-inkscape-font-specification:'Arial Rounded MT Bold, ';letter-spacing:0px;word-spacing:0px;fill:#000000;fill-opacity:1;stroke:none;stroke-width:3.81416416"
         xml:space="preserve"><tspan
           style="stroke-width:3.81416416"
           y="316.82584"
           x="43.55566"
           id="tspan855"
           sodipodi:role="line">FREE</tspan></text>
    </g>
  </g>
</svg>
